<?xml version="1.0" encoding="UTF-8"?>
<svg id="Layer_1" data-name="Layer 1" xmlns="http://www.w3.org/2000/svg" viewBox="0 0 652.8 646.4">
  <defs>
    <style>
      .cls-1 {
        fill: #fff;
      }

      .cls-2 {
        fill: #ec2427;
      }
    </style>
  </defs>
  <path class="cls-2" d="M312.36,637.2c-36.73-2.67-72.77-10.23-106.97-24.53-101.97-42.64-178.23-141.69-189.03-252.47h124c13.89,80.17,83.93,144.04,164.62,152.88,98.62,10.8,190.35-55.44,208.38-152.88h124c-10.83,110.76-87.03,209.81-189.03,252.47-33.24,13.9-71.15,22.72-106.97,24.53h-29ZM557.36,468.2v17.5c0,5.7-8.95,22.87-16.27,21.32-2.14-.45-19.4-14.96-19.66-16.46,3.29-5.72,8.54-9.9,15.41-9.39,2.06.15,5.13,1.8,6.04,1.7,5.78-.66-.72-6.51-2.5-8.18-4.91-4.63-11.37-8.99-16.53-13.44-4.88,3.87-.09,6.6.47,10.53.83,5.77-3.27,11.55-7.45,15.18-3.87-3.31-18.6-13.35-19.36-17.49-.98-5.35,9.35-13.62,13.85-15.76,6.15-2.92,13.55-3.8,20.27-4.5l1.69-2.51-18.32-7.29-40.63,48.28c2.58,3.6,3.85-.74,6.25-1.72,4.88-2,6.5-.35,10.22,2.27,12.79,8.99,25.22,22.53,37.58,32.42,3.43,5.9-2.39,9.38-2.05,11.03l3.45,1.57,39.35-47.72c-1.16-2.27-7.14-16.67-7.95-17.15-.95-.56-2.65-.02-3.84-.17ZM178.24,479.32c-8.64-2.38-9.2-11.07-13.45-17.05-17.39-24.5-58.47-14.24-66.74,13.14-7.65,25.34,14.77,50.19,40.79,45.8,2.06-.35,3.59-1.75,1.54-3.53-45.92-.54-32.11-47.6,1.17-57.77,14.93-4.56,25.1,5.85,24.73,20.64-.09,3.6-3.96,13.79-3.73,15.02.55,2.92,3.48,3.3,5.67,1,1.19-1.25,8.96-12.89,9.6-14.41.37-.87.96-1.9.41-2.84ZM473.38,538.2c10.27-10.03,20.32,8.38,17.53,17.06-1.29,4-8.34,8.15-12.31,8.73-17.58,2.58-37.86-31.86-35.99-47.02,1.31-10.66,9.99-16.32,20.27-15.81,6.02.29,12.84,4.24,17.41,4.61,2.87.23,3.46-2.19,1.59-4.6-1.42-1.82-13.43-12.14-14.97-12.04-4.98,9.49-14.75,7.51-23.04,14.09-33.57,26.66-.83,90.02,42.39,62.39,8.65-5.53,13.7-15.32,23.08-19.44-2.08-5.69-12.69-16.36-9.8-22.21,1.35-2.73,6.29-4.55,2.28-7.77l-30.46,18.5,2,3.5ZM188.18,494.46c-12.71.75-24.54,9.65-30.62,20.43-23.17,41.12,34.94,77.72,63.78,40.78,20.92-26.8-1.5-63.07-33.16-61.21ZM275.3,529.26l-35.94-9.06-.56,3.03c11.25,2.93,7.44,9.84,5.48,18.39-3.14,13.7-7.91,27.16-11.15,40.85-3.8,7.45-11.31,3.23-11.77,3.73l.11,3.89,60.75,16.02c1.1-4.98,8.6-11.83,9.73-15.85.51-1.82.36-1.88-1.11-3.07-4.54,1.46-8.42,4.55-12.94,6.04-7.97,2.63-23.68,5.28-28.26-3.67,4.04-9.71,10.23-49.92,16.2-55.39,3.38-3.1,5.58-1.06,9.52-.99l-.05-3.94ZM382.57,535.4c10.4-6.45,22.57-3.91,33.11.97,1.46.68,7.57,6.58,8.67,2.3.47-1.81-9.08-16.24-11.51-16.48l-59.35,15.15-.13,3.86c3.36-.89,8.18-2.26,10.31,1.27,4.51,15.48,10.04,32.1,13,47.91,1.28,6.84,2.76,11.54-6.19,12.94l-.12,3.88,61.02-15.47c.99-.86,3.08-15.73,3.02-18-.04-1.52.65-2.94-1.55-2.54-2.07.37-8.29,10.49-10.96,13.04-4.81,4.59-19.94,14.95-25.56,8.5-1.85-2.12-7.8-24.48-6.93-25.48,5.73-1.2,13.01-2.46,17.92,1.5,1.93,1.56,3.11,5.5,5.53,5.5,2.78-.27,2.53-2.12,2.3-4.26-.4-3.74-4.25-18.97-5.71-22.37-.34-.79-.49-1.98-1.53-2.16-4.8-.84-3.87,8.4-7.63,12.17-1.67,1.67-11.45,5.79-12.89,4.54-.17-5.48-7.21-22.62-4.82-26.76ZM333.36,536.2c-10.94,1.62-24.1-2.27-34.56-1.06-2.69.31-4.74,1.32-2.87,4.05,3.66-.03,8.34.4,9.21,4.72-.61,15.75,1.56,33.28.25,48.82-.69,8.23-2,11.56-11.04,11.47v2.99s63.91.9,63.91.9l6.09-19.89c-2.07-1.96-12.79,8.6-16.08,10.41-4.94,2.73-23.36,9.74-25.73,1.89-1.21-4.03-.35-22.25-.23-27.85.05-2.36.98-4.55,1.08-6.92.4-9.33-4.44-28.45,9.96-25.55v-3.99Z"/>
  <path class="cls-2" d="M341.36,9.2c36.73,2.67,72.77,10.23,106.97,24.53,102,42.66,178.2,141.71,189.03,252.47h-124c-13.89-80.17-83.93-144.04-164.62-152.88-98.62-10.8-190.41,55.44-208.38,152.88H16.36C27.07,175.47,103.51,76.34,205.39,33.73c33.24-13.9,71.15-22.72,106.97-24.53h29ZM374.37,87.19l-7.5-44c-.96-1.08-25.2-5.4-26.53-4.51-4.35,2.93,9.28,4.71,7.03,9.99-3.17,13.69-4.02,28.1-7.31,41.73-1.84,7.59-2.44,12.86-11.71,13.29l-1,3.5c7.02-.03,14.42,2.79,21.22,3.38,1.12.1,2.18.83,2.77-.89,1.21-3.48-4.97-3.17-6.47-6.5-3.34-7.41,7.26-38.99,6.49-48.99,2.63-.21,1.66-.12,1.96,1.52,3.55,19.03,5.94,38.39,9.04,57.49,2.24.2,4.25.04,5.46-2.04l28.52-51.96-8.25,48.23c-1.3,5.29-5.06,5.11-9.74,4.77l.02,3.97,32.98,5.02c1.32-4.88-5.14-3.69-6.52-5.97-.87-1.44-.58-4.74-.52-6.56.34-10.4,4.84-33,7.35-43.65,1.52-6.43,2.05-9.94,10.04-8.75,3.51-4.02-.55-3.9-4.15-4.73-2.97-.69-19.92-3.66-21.19-2.86l-21.98,38.54ZM307,108.84c12.36-12.35-.93-43.52-1.7-59.13-1.28-6.75,9.85-5.24,7.07-10.03l-23.01,3.53c.89,5.7,8.07.63,10.09,6.4,1.7,13.42,7.87,30.91,8,44.09.17,17.48-22.16,24.77-29.48,10.4-6.25-12.27-5.69-34.71-9.69-48.41-.08-1.54.58-2.47,1.5-3.58,1.64-1.96,7.49-2.49,6.58-4.39-.86-1.78-2.73-1.5-4.33-1.44-9.21.35-20.11,4.98-29.67,4.93l.98,3.52c2.21,1.47,7.52-1.12,8.81,3.19,5.5,14.28,3.11,44.83,15.72,54.28,9.33,6.99,31.01,4.77,39.14-3.35ZM474.36,116.21c12.26,3.83,26.84-3.71,22.54-18.06-3.77-12.57-36.56-26.02-47.05-33.93-5,4.66,4.25,4.29,3.34,10.24-.51,3.36-11.43,20.69-14.03,25.04-2.59,4.34-10.57,19.3-13.27,21.72-5.09,4.56-8.06-.41-10.01-.03l-1.52,2.49c.45,2.21,34.43,21.61,38.64,23.37,10.68,4.46,22.51,5.72,28.1-6.61,4.59-10.12-.51-16.64-6.74-24.23ZM203.35,73.18c.04-2.96-1.51-3.17-4.01-2.55-2.68.67-21.93,10.47-24.69,12.36-1.05.72-2.52,1.01-2.3,2.7-.53,3.05,4.73.3,6.52.41,3.52.2,5.32,3.36,7.02,6.07,3.57,5.68,20.1,37.94,21.07,43,.87,4.53-.82,7.35-5.6,8.05l1.63,3.07,50.45-24.73-3.1-18.72-2.48-.64c-3.28,6.93-4.87,13.99-10,20.01-3.01,3.54-10.76,10.41-15.52,7.5-3.36-2.06-20.16-42.54-24.34-48.75-1.33-3.48,2.14-7.2,5.35-7.78ZM142.11,112.46c-9.28,1.2-19,8.32-23.98,16.01-19.87,30.68,22.78,74.43,53.7,48.7,28.09-23.37,2.42-68.87-29.72-64.71ZM532.41,247.16c7.46.65-.14-8.48,4.95-12.46l44.76-47.01c-3.08-2.79-7.1-9.15-11.23-9.57-17.56,1.03-36.68,7.3-53.98,8.12-2.66.13-6.27.25-8.81-.27-4.21-.86-5.78-5.47-10.06-3.91-3.32-2.16-1.64-6.52.33-9.37,8.23-11.87,26.28-22.68,35.49-34.51,2.96-1.98,4.32-1.86,7.41-.42.82.38,4.33,4.63,5.09.92.34-1.67-21.78-24.83-23.48-24.48-3.53.74,1.03,5.39,1.32,6.73,1.45,6.81-8.31,12.24-12.36,16.24-6.66,6.58-17.58,19.69-24.54,24.46-5.15,3.53-6.7,2.41-11.45-1.23l-2.47,2.3,22.47,22.61c.91,1.33,3.27-.14,3.42-.03.91.65,8.6,17.36,10.11,19.92,5.64-1.2,1.5-4.4,2.14-8.26,1.03-6.24,11.54-6.26,16.4-7.35,1.57.25,11.85,18.8,11.31,20.9-3.05,2.9-10.4,13.26-14.83,11.24-1.4-.64-5.96-7.75-6.02-2.08-.05,4.7,13.16,21.24,14.03,27.51ZM79.36,177.19c1.06,8.61-6.05,12.32-9.52,18.99-9.5,18.29,3.05,38.91,20.14,46.89,32.44,15.15,62.5-18.48,40.41-47.41l-3.03,1.05c16.36,31.25-12.4,41.1-37.68,27.66-27.19-14.44-21.12-38.33,9.04-38.33l1.22-.78c.61-.86.69-2.5.35-3.48-.77-2.25-17.59-3.81-20.92-4.6Z"/>
  <path class="cls-2" d="M229.39,177.22c12.97,6.9,28.14,8.93,42.59,10.85,34.23,4.56,65.44,4.94,99.75,1,17.99-2.07,38.78-4.03,54.6-12.87l47.69,65.5c-10.85,15.3-22.53,33.62-23.65,53.01-2.53,43.88,40.37,97.51,16.8,136.81-11.59,19.33-61.93,31.38-83.64,35.36-15.21,2.79-35.02,1.81-46.66,12.34-1.95,1.76-7.65,10.32-9.02,9.97-2.37-2.51-4.05-6.16-6.47-8.54-11.33-11.13-40.93-11.31-57.23-14.77-19.06-4.04-60.13-14.73-72.32-29.68-27.9-34.21,11.03-91.95,13.5-131.52,1.45-23.22-9.54-44.46-23.73-61.98l47.78-65.49ZM237.02,189.28l-40.62,56.41c3.87,7.4,8.99,13.86,12.43,21.54,7.29,16.31,8.59,28.62,6.4,46.34-4.72,38.24-45.02,95.64,5.77,119.49,27.87,13.08,60.2,16.9,90.33,21.67,7.07,2.88,11.34,8.47,15.56,14.47,8.82-7.6,11.23-14.69,24.06-16.9,25.72-4.42,83.21-10.5,99.81-32.19,23.68-30.92-9.97-76.59-12.4-110.43-1.79-24.85,8.31-45.86,21.86-65.8l-39.34-52.71-2.84-1.85c-9.63,6.15-23.92,7.37-35.31,8.74-39.1,4.7-69.96,3.27-108.73-2.02-12.39-1.69-24.97-3.41-36.98-6.78Z"/>
  <path d="M31.35,314.19l-6.51-6.98c-3.74-4.48-12.48-4.18-12.57,2.46-.12,8.94,17.2,7.37,20.41,17.69,1.86,5.99-.18,13.73-6.06,16.61-6.55,3.21-10.65-2.43-17.27.24l-1.99-13c3.86,4.7,11.66,16.8,18.53,10.04,9.32-9.17-7.46-13.2-11.87-16.21-6.42-4.38-8.76-12.09-4.13-18.79,5-7.22,11.67-2.23,18.51-3.63l2.94,11.58Z"/>
  <path d="M68.35,316.19v4.01c18-12.12,12.83,8.27,14.09,18.44.51,4.11,2.89,2.44,2.91,5.56h-11.99c-.41-3.01,2.15-1.25,2.76-4.69.72-4.06,1.59-23.83-6.36-17.4-1.92,1.56-1.92,14.79-1.42,17.62.54,3.11,3.69,1.33,3.02,4.47h-12.99c-.93-2.72,1.82-1.83,2.5-2.94.73-1.19.89-15.44.51-17.58-.54-3.05-3.35-1.42-3.01-3.96l9.99-3.52Z"/>
  <path d="M532.36,343.2h-21c.71-2.2,4.59-1.45,6.09-3.41,1.07-1.4.81-2.51.96-4.04.46-4.57.64-20.88-.27-24.84s-2.85-3.33-5.36-4.62c-1.04-.54-1.88.52-1.42-2.09,5.04-.23,9.99-2.09,14-5.01v34.5c0,.34,1.25,6.29,1.44,6.56,1,1.47,5.24.42,5.56,2.94Z"/>
  <path d="M112.09,318.46c1.72,1.83,2.37,7.44-1.24,7.8-5.28.54-3.19-11.91-9.08-7.14-4.84,3.92-3.47,26.6,7.57,21.56,2.08-.95,4.06-7.71,5.01-3-11.69,16.52-28.57.17-19.84-14.84,3.25-5.58,12.71-9.59,17.59-4.39Z"/>
  <path d="M49.36,316.2v24.5c0,1.05,4.1.87,2.99,3.49h-12.99c-.67-3.13,2.48-1.35,3.02-4.47.37-2.15.22-16.44-.52-17.58-.62-.96-2.48-.53-2.52-1.46-.1-2.83,7.68-4.25,10.01-4.49Z"/>
  <path d="M48.22,302.34c1.15,2.58,2.07,5.81-.29,7.95-5.6,4.66-9.61-10.93.29-7.95Z"/>
  <path class="cls-1" d="M188.18,494.46c31.66-1.86,54.08,34.41,33.16,61.21-28.84,36.94-86.94.34-63.78-40.78,6.08-10.78,17.91-19.69,30.62-20.43ZM196.08,502.43c-18.07,3.73-48.75,56.97-15.96,61.55,17.83,2.49,38.62-33.69,36.17-49.22-1.4-8.87-11.82-14.06-20.21-12.33Z"/>
  <path class="cls-1" d="M382.57,535.4c-2.39,4.14,4.65,21.28,4.82,26.76,1.43,1.25,11.22-2.87,12.89-4.54,3.76-3.77,2.83-13.01,7.63-12.17,1.04.18,1.19,1.37,1.53,2.16,1.46,3.4,5.31,18.62,5.71,22.37.23,2.15.48,3.99-2.3,4.26-2.42,0-3.6-3.95-5.53-5.5-4.91-3.96-12.19-2.69-17.92-1.5-.87,1,5.07,23.36,6.93,25.48,5.62,6.45,20.75-3.9,25.56-8.5,2.67-2.55,8.89-12.67,10.96-13.04,2.2-.4,1.51,1.02,1.55,2.54.06,2.26-2.03,17.14-3.02,18l-61.02,15.47.12-3.88c8.95-1.4,7.47-6.1,6.19-12.94-2.96-15.81-8.49-32.43-13-47.91-2.13-3.53-6.95-2.16-10.31-1.27l.13-3.86,59.35-15.15c2.43.24,11.98,14.67,11.51,16.48-1.11,4.28-7.21-1.62-8.67-2.3-10.54-4.88-22.71-7.42-33.11-.97Z"/>
  <path class="cls-1" d="M557.36,468.2c1.18.15,2.88-.39,3.84.17.81.48,6.79,14.88,7.95,17.15l-39.35,47.72-3.45-1.57c-.34-1.66,5.48-5.14,2.05-11.03-12.36-9.89-24.79-23.43-37.58-32.42-3.72-2.62-5.34-4.27-10.22-2.27-2.4.99-3.67,5.32-6.25,1.72l40.63-48.28,18.32,7.29-1.69,2.51c-6.72.7-14.12,1.58-20.27,4.5-4.5,2.14-14.83,10.41-13.85,15.76.76,4.14,15.49,14.18,19.36,17.49,4.18-3.62,8.27-9.4,7.45-15.18-.56-3.93-5.35-6.66-.47-10.53,5.16,4.44,11.62,8.81,16.53,13.44,1.78,1.68,8.29,7.52,2.5,8.18-.91.1-3.98-1.54-6.04-1.7-6.86-.51-12.12,3.67-15.41,9.39.26,1.5,17.52,16.01,19.66,16.46,7.32,1.55,16.27-15.62,16.27-21.32v-17.5Z"/>
  <path class="cls-1" d="M473.38,538.2l-2-3.5,30.46-18.5c4.01,3.21-.93,5.03-2.28,7.77-2.88,5.85,7.72,16.53,9.8,22.21-9.38,4.12-14.44,13.91-23.08,19.44-43.22,27.63-75.96-35.73-42.39-62.39,8.29-6.58,18.06-4.6,23.04-14.09,1.55-.1,13.56,10.21,14.97,12.04,1.87,2.4,1.28,4.83-1.59,4.6-4.57-.37-11.39-4.32-17.41-4.61-10.29-.5-18.96,5.15-20.27,15.81-1.86,15.15,18.41,49.6,35.99,47.02,3.97-.58,11.02-4.73,12.31-8.73,2.79-8.67-7.26-27.08-17.53-17.06Z"/>
  <path class="cls-1" d="M178.24,479.32c.56.95-.04,1.97-.41,2.84-.64,1.52-8.41,13.16-9.6,14.41-2.19,2.3-5.12,1.91-5.67-1-.23-1.24,3.64-11.42,3.73-15.02.37-14.79-9.79-25.2-24.73-20.64-33.27,10.17-47.09,57.23-1.17,57.77,2.06,1.77.52,3.18-1.54,3.53-26.02,4.4-48.45-20.46-40.79-45.8,8.27-27.38,49.35-37.64,66.74-13.14,4.25,5.99,4.81,14.68,13.45,17.05Z"/>
  <path class="cls-1" d="M275.3,529.26l.05,3.94c-3.95-.07-6.14-2.12-9.52.99-5.96,5.47-12.16,45.68-16.2,55.39,4.59,8.95,20.3,6.3,28.26,3.67,4.52-1.49,8.4-4.58,12.94-6.04,1.46,1.19,1.61,1.25,1.11,3.07-1.12,4.02-8.62,10.87-9.73,15.85l-60.75-16.02-.11-3.89c.46-.5,7.97,3.72,11.77-3.73,3.24-13.69,8.01-27.15,11.15-40.85,1.96-8.55,5.77-15.46-5.48-18.39l.56-3.03,35.94,9.06Z"/>
  <path class="cls-1" d="M333.36,536.2v3.99c-14.4-2.9-9.56,16.22-9.96,25.55-.1,2.37-1.03,4.56-1.08,6.92-.12,5.6-.98,23.82.23,27.85,2.36,7.85,20.79.84,25.73-1.89,3.29-1.82,14-12.37,16.08-10.41l-6.09,19.89-63.91-.9v-2.99c9.05.09,10.35-3.25,11.04-11.47,1.31-15.54-.86-33.07-.25-48.82-.87-4.32-5.54-4.75-9.21-4.72-1.87-2.73.19-3.74,2.87-4.05,10.45-1.21,23.62,2.68,34.56,1.06Z"/>
  <path class="cls-1" d="M532.41,247.16c-.87-6.27-14.08-22.81-14.03-27.51.06-5.66,4.62,1.45,6.02,2.08,4.43,2.02,11.78-8.34,14.83-11.24.54-2.1-9.75-20.64-11.31-20.9-4.86,1.09-15.37,1.11-16.4,7.35-.64,3.86,3.5,7.06-2.14,8.26-1.51-2.56-9.2-19.27-10.11-19.92-.15-.11-2.51,1.36-3.42.03l-22.47-22.61,2.47-2.3c4.75,3.64,6.29,4.76,11.45,1.23,6.95-4.77,17.87-17.88,24.54-24.46,4.05-4,13.81-9.43,12.36-16.24-.29-1.33-4.85-5.99-1.32-6.73,1.7-.35,23.82,22.81,23.48,24.48-.76,3.71-4.28-.54-5.09-.92-3.09-1.44-4.45-1.56-7.41.42-9.21,11.83-27.27,22.64-35.49,34.51-1.97,2.85-3.65,7.21-.33,9.37,4.28-1.56,5.85,3.04,10.06,3.91,2.55.52,6.15.39,8.81.27,17.3-.82,36.43-7.09,53.98-8.12,4.13.42,8.15,6.77,11.23,9.57l-44.76,47.01c-5.09,3.99,2.51,13.11-4.95,12.46ZM564.36,184.21c-9.48,1.28-19.03,2.56-28.49,4.01-1.1.17-2.07-.5-1.49,1.45.89,3,5.86,10.98,7.76,14.25.48.83-.29,1.66,1.7,1.27l20.51-20.98Z"/>
  <path class="cls-1" d="M374.37,87.19l21.98-38.54c1.27-.8,18.23,2.17,21.19,2.86,3.6.83,7.66.71,4.15,4.73-7.98-1.19-8.52,2.32-10.04,8.75-2.51,10.66-7.01,33.25-7.35,43.65-.06,1.82-.34,5.13.52,6.56,1.37,2.28,7.84,1.09,6.52,5.97l-32.98-5.02-.02-3.97c4.68.34,8.45.53,9.74-4.77l8.25-48.23-28.52,51.96c-1.22,2.08-3.23,2.24-5.46,2.04-3.09-19.1-5.48-38.47-9.04-57.49-.31-1.63.67-1.73-1.96-1.52.78,10-9.82,41.58-6.49,48.99,1.5,3.34,7.68,3.03,6.47,6.5-.6,1.71-1.66.98-2.77.89-6.8-.58-14.2-3.41-21.22-3.38l1-3.5c9.27-.43,9.87-5.7,11.71-13.29,3.3-13.63,4.15-28.04,7.31-41.73,2.25-5.28-11.39-7.06-7.03-9.99,1.33-.89,25.57,3.43,26.53,4.51l7.5,44Z"/>
  <path class="cls-1" d="M474.36,116.21c6.23,7.59,11.33,14.11,6.74,24.23-5.59,12.33-17.41,11.08-28.1,6.61-4.21-1.76-38.19-21.16-38.64-23.37l1.52-2.49c1.94-.38,4.92,4.59,10.01.03,2.7-2.42,10.68-17.38,13.27-21.72,2.6-4.35,13.51-21.67,14.03-25.04.91-5.94-8.34-5.58-3.34-10.24,10.48,7.91,43.28,21.36,47.05,33.93,4.3,14.35-10.28,21.88-22.54,18.06ZM455.36,103.18c8.16,2.87,15.69,10.42,23.55,2.07,9.7-10.32,2.27-22.55-10.28-23.34l-13.27,21.27ZM452.96,107.28c-1.37.32-13.7,22.29-13.68,24.45.05,5.15,9.85,9.67,14.55,9.52,9.51-.3,18.87-13.8,14.4-22.42-1.39-2.68-12.57-12.19-15.27-11.55Z"/>
  <path class="cls-1" d="M142.11,112.46c32.15-4.16,57.81,41.35,29.72,64.71-30.92,25.73-73.57-18.03-53.7-48.7,4.98-7.69,14.7-14.81,23.98-16.01ZM133.1,121.43c-6.11,1.05-10.72,6.68-11.29,12.72-1.35,14.45,25.81,42.2,40.06,42.15,11.15-.04,15.38-11.69,12.27-21.36-3.89-12.05-27.39-35.86-41.03-33.5Z"/>
  <path class="cls-1" d="M307,108.84c-8.12,8.12-29.8,10.34-39.14,3.35-12.61-9.45-10.23-40-15.72-54.28-1.29-4.31-6.6-1.71-8.81-3.19l-.98-3.52c9.55.04,20.46-4.58,29.67-4.93,1.6-.06,3.47-.34,4.33,1.44.92,1.9-4.94,2.43-6.58,4.39-.93,1.11-1.58,2.04-1.5,3.58,4,13.7,3.44,36.14,9.69,48.41,7.32,14.38,29.65,7.09,29.48-10.4-.13-13.18-6.3-30.66-8-44.09-2.02-5.77-9.19-.7-10.09-6.4l23.01-3.53c2.78,4.79-8.34,3.28-7.07,10.03.77,15.61,14.06,46.78,1.7,59.13Z"/>
  <path class="cls-1" d="M79.36,177.19c3.33.79,20.15,2.35,20.92,4.6.33.98.25,2.62-.35,3.48l-1.22.78c-30.16,0-36.22,23.89-9.04,38.33,25.29,13.43,54.04,3.59,37.68-27.66l3.03-1.05c22.1,28.93-7.97,62.56-40.41,47.41-17.09-7.98-29.64-28.6-20.14-46.89,3.46-6.67,10.58-10.38,9.52-18.99Z"/>
  <path class="cls-1" d="M203.35,73.18c-3.21.58-6.68,4.3-5.35,7.78,4.18,6.21,20.97,46.69,24.34,48.75,4.76,2.91,12.51-3.96,15.52-7.5,5.12-6.02,6.71-13.08,10-20.01l2.48.64,3.1,18.72-50.45,24.73-1.63-3.07c4.78-.7,6.47-3.52,5.6-8.05-.97-5.06-17.49-37.32-21.07-43-1.7-2.71-3.5-5.86-7.02-6.07-1.79-.1-7.05,2.64-6.52-.41-.21-1.69,1.26-1.99,2.3-2.7,2.76-1.89,22.02-11.69,24.69-12.36,2.5-.63,4.05-.41,4.01,2.55Z"/>
  <path class="cls-1" d="M237.02,189.28c12.01,3.37,24.59,5.09,36.98,6.78,38.77,5.28,69.63,6.72,108.73,2.02,11.39-1.37,25.68-2.6,35.31-8.74l2.84,1.85,39.34,52.71c-13.55,19.94-23.64,40.95-21.86,65.8,2.43,33.83,36.08,79.5,12.4,110.43-16.61,21.69-74.09,27.77-99.81,32.19-12.83,2.2-15.25,9.29-24.06,16.9-4.22-6-8.49-11.59-15.56-14.47-30.13-4.77-62.46-8.59-90.33-21.67-50.79-23.84-10.49-81.24-5.77-119.49,2.19-17.72.89-30.03-6.4-46.34-3.44-7.68-8.56-14.14-12.43-21.54l40.62-56.41ZM325.36,205.2l-87.99-10.51-36.68,51.01c7.65,12.2,15.49,25,18.22,39.45,2.2,11.68,1.38,22.44-.55,34.05h107v-114ZM329.36,205.2v114h107c-7.04-27.07,5.06-53.05,18.99-75.52l-36.15-49.33c-28.96,8.71-59.75,9.81-89.84,10.85ZM325.36,323.2h-108c-3.65,28.14-31.7,67.46-10.98,94.48,13.68,17.83,62.77,26.76,84.62,30.38,13.33,2.21,24.3.44,34.36,12.14v-137ZM437.36,323.2h-108v138c3.89-4.16,8.9-9.08,14.44-11.06,8.53-3.05,24.74-3.43,34.75-5.25,16.6-3.03,56.79-12.89,67.79-25.21,23.5-26.3-4.62-68.02-8.98-96.48Z"/>
  <path d="M645.34,316.71c-2.04-23.97-30.43-23.55-28.03,1.05,1.28,13.19,12.37,12.52,20.04,4.45-.39,4.3-.97,17.5-5.69,18.86-6,1.73-4.39-8.07-8.62-7.7-6.98.61-4.25,12.68,7.58,10.61,10.98-1.92,15.53-17.77,14.72-27.26ZM634.07,321.89c-9.43,7.48-12.91-11.75-7.17-18.65,3.8-4.57,7.91-.74,9.04,3.88,1.13,4.66,2.24,11.51-1.87,14.77Z"/>
  <path d="M556.85,299.11c-21.13.73-14.21,44.71,7.5,23.09-.07,4.47-1.07,18.47-6.53,19.04-4.68.49-3.08-6.28-7.09-7.89l-3.88,1.84c-2.18,5.54,3.02,8.95,8.01,9.1,20.8.62,24.76-45.96,2-45.17ZM556.83,323.27c-8.35-.06-6.3-20.38-.77-21.94,8.01-2.26,12.79,22.03.77,21.94Z"/>
  <path d="M603.02,302.54c-3.16-3.18-7.61-3.89-11.93-3.1-18.85,3.45-10.77,43.52,9.26,22.76.13,6.3.42,20.75-8.86,18.86-3.65-17.2-14.02-.36-4.18,2.68,19.53,6.03,27.7-29.15,15.71-41.21ZM597.44,321.78c-10.72,8.43-12.01-14.52-6.82-19.3.86-.79,2.09-1.06,3.23-1.16,6.75.32,8.94,16.26,3.59,20.46Z"/>
  <path d="M136.81,341.21c-6.1,1.05-9.53-5.73-9.45-11.01h16c-.87-18.39-21.46-18.84-22.54-.05-.58,10.12,8.42,18.22,17.91,12.91.81-.45,4.59-4.05,4.61-4.37.23-3.47-5.27,2.29-6.53,2.51ZM137.36,328.2h-10.01c-.22-11.93,10.45-13.36,10.01,0Z"/>
  <path class="cls-2" d="M196.08,502.43c8.39-1.73,18.81,3.46,20.21,12.33,2.45,15.53-18.34,51.71-36.17,49.22-32.79-4.58-2.1-57.82,15.96-61.55Z"/>
  <path class="cls-2" d="M564.36,184.21l-20.51,20.98c-1.99.4-1.22-.43-1.7-1.27-1.9-3.27-6.87-11.25-7.76-14.25-.58-1.95.39-1.28,1.49-1.45,9.47-1.46,19.01-2.73,28.49-4.01Z"/>
  <path class="cls-2" d="M452.96,107.28c2.7-.64,13.88,8.87,15.27,11.55,4.47,8.62-4.89,22.12-14.4,22.42-4.7.15-14.5-4.37-14.55-9.52-.02-2.16,12.31-24.13,13.68-24.45Z"/>
  <path class="cls-2" d="M455.36,103.18l13.27-21.27c12.55.79,19.98,13.02,10.28,23.34-7.86,8.36-15.39.8-23.55-2.07Z"/>
  <path class="cls-2" d="M133.1,121.43c13.64-2.35,37.15,21.45,41.03,33.5,3.12,9.67-1.12,21.32-12.27,21.36-14.25.05-41.41-27.69-40.06-42.15.57-6.04,5.18-11.67,11.29-12.72Z"/>
  <path class="cls-2" d="M437.36,323.2c4.36,28.46,32.48,70.18,8.98,96.48-11,12.31-51.19,22.18-67.79,25.21-10,1.82-26.22,2.2-34.75,5.25-5.54,1.98-10.55,6.9-14.44,11.06v-138h108ZM417.35,332.2c-9.63,7.48-16.37,1.2-25.6.11-41.38-4.91-62.89,50.31-39.8,80.81,15,19.81,44.17,22.94,62.31,5.48,2.23-2.15,11.29-12.76,9.61-15.4-1.02-1.39-2.14-1.27-3.54-.52s-7.47,9.3-10.48,11.53c-16.6,12.29-35.21,2.55-41.54-15.46-5.49-15.64-5.61-52.85,13.06-60.02,13.56-5.21,24.85,4.51,32.21,14.75,3.4,4.72,3.4,11.36,10.68,7.63l-6.92-28.89Z"/>
  <path class="cls-2" d="M325.36,205.2v114h-107c1.93-11.61,2.76-22.37.55-34.05-2.73-14.45-10.57-27.25-18.22-39.45l36.68-51.01,87.99,10.51ZM304.35,213.2c-14.09,7.41-24.5-3.15-40.04.45-25.8,5.98-39.12,38.58-33.68,62.77,7.86,34.93,51.68,46.65,74.7,18.26,2.67-3.29,9.68-11.6,2.04-12.47-13.19,25.39-43.48,24.16-52.48-4.05-5.76-18.05-4.94-62.62,22.96-59.96,13.1,1.25,22.14,13.69,27.49,24.57l5.95-.62-6.96-28.95Z"/>
  <path class="cls-2" d="M329.36,205.2c30.09-1.05,60.88-2.15,89.84-10.85l36.15,49.33c-13.93,22.47-26.03,48.46-18.99,75.52h-107v-114ZM420.36,215.21c-7.82,2.37-17.85,5.48-25.33.82-1.9-1.18-3.03-3.16-4.73-4.27-16.93-11.05-42.23,4.98-29.36,21.36,8.28,10.53,29.62,9.87,34.36-3.3-3.32-3.27-9.82-5.45-14.4-4.6-1.56.29-2.95,2.15-4.01,1.98-4.44-.7,2.53-5.33,7.83-4.94,10.99.8,12.45,10.21,24.35,4.14,4.6-2.34,8.46-7,11.29-11.2ZM358.86,241.2c-2.56,1.76-2.09,6.83,1.2,7.8,3.33.98,28.19.72,32.86.26,8.24-.81,5.44-8.06,3.94-8.06h-38ZM395.36,250.2h-35v30h35v-30ZM358.86,290.2h38c1.8,0,2.8-6.62-1.2-7.8-3.33-.98-28.19-.72-32.86-.26-6.83.67-6.81,7.17-3.94,8.06ZM388.36,312.2v-19.5l-1.5-1.5h-18l-1.5,1.5v19.5c.98-.32,2.17,1,2.5,1h16c.33,0,1.52-1.32,2.5-1Z"/>
  <path class="cls-2" d="M325.36,323.2v137c-10.06-11.71-21.03-9.94-34.36-12.14-21.85-3.62-70.94-12.55-84.62-30.38-20.72-27.02,7.33-66.33,10.98-94.48h108ZM310.36,340.2h-83v73c11.35,1.15,25.58-1.53,36.55-.05,3.24.44,3.26,2.15,5.82,3,1.87-1.75,2.41-2.63,5.07-3,10.62-1.47,24.56,1.2,35.55.05v-73Z"/>
  <path class="cls-1" d="M417.35,332.2l6.92,28.89c-7.28,3.73-7.28-2.9-10.68-7.63-7.36-10.24-18.65-19.96-32.21-14.75-18.66,7.17-18.55,44.38-13.06,60.02,6.32,18.01,24.93,27.76,41.54,15.46,3.01-2.23,9.11-10.79,10.48-11.53s2.52-.87,3.54.52c1.68,2.64-7.38,13.25-9.61,15.4-18.14,17.46-47.31,14.33-62.31-5.48-23.09-30.49-1.57-85.71,39.8-80.81,9.23,1.09,15.97,7.37,25.6-.11Z"/>
  <path class="cls-1" d="M304.35,213.2l6.96,28.95-5.95.62c-5.35-10.88-14.39-23.32-27.49-24.57-27.9-2.66-28.72,41.91-22.96,59.96,9,28.21,39.29,29.44,52.48,4.05,7.64.87.62,9.18-2.04,12.47-23.02,28.39-66.84,16.67-74.7-18.26-5.44-24.19,7.88-56.79,33.68-62.77,15.54-3.6,25.95,6.96,40.04-.45Z"/>
  <path class="cls-1" d="M420.36,215.21c-2.83,4.2-6.7,8.85-11.29,11.2-11.9,6.07-13.36-3.34-24.35-4.14-5.31-.39-12.27,4.24-7.83,4.94,1.06.17,2.45-1.69,4.01-1.98,4.58-.86,11.09,1.32,14.4,4.6-4.74,13.16-26.09,13.83-34.36,3.3-12.87-16.38,12.43-32.41,29.36-21.36,1.7,1.11,2.83,3.09,4.73,4.27,7.48,4.66,17.51,1.55,25.33-.82Z"/>
  <rect class="cls-1" x="360.36" y="250.2" width="35" height="30"/>
  <path class="cls-1" d="M388.36,312.2c-.98-.32-2.17,1-2.5,1h-16c-.33,0-1.52-1.32-2.5-1v-19.5l1.5-1.5h18l1.5,1.5v19.5Z"/>
  <path class="cls-1" d="M358.86,290.2c-2.86-.89-2.89-7.39,3.94-8.06,4.67-.46,29.53-.72,32.86.26,4,1.18,3,7.8,1.2,7.8h-38Z"/>
  <path class="cls-1" d="M358.86,241.2h38c1.5,0,4.3,7.25-3.94,8.06-4.67.46-29.53.72-32.86-.26-3.29-.97-3.77-6.04-1.2-7.8Z"/>
  <path class="cls-1" d="M310.36,340.2v73c-11,1.14-24.94-1.52-35.55-.05-2.66.37-3.2,1.25-5.07,3-2.56-.85-2.58-2.56-5.82-3-10.97-1.48-25.21,1.21-36.55.05v-73h83ZM268.36,411.2v-69h-1v67h-39c-.29,1.92.78,2.68,2.51,2.99,6.11,1.11,34.96-1.35,37.29.28.87.61-.44,3.97,3.63-.36l37.58.08v-3h-38.51c-.42,0-1.46,2.11-2.5,2Z"/>
  <path class="cls-2" d="M268.36,411.2c1.04.11,2.08-2,2.5-2h38.5v3s-37.58-.08-37.58-.08c-4.07,4.32-2.76.97-3.63.36-2.33-1.63-31.18.83-37.29-.28-1.73-.31-2.8-1.07-2.51-2.99h39v-67h1v69Z"/>
</svg>